<svg xmlns="http://www.w3.org/2000/svg" width="512.001" height="512.001" viewBox="0 0 512.001 512.001">
  <g id="IconInfo" transform="translate(-3287 -3221)">
    <g id="informacion" transform="translate(3287 3221)">
      <path id="Trazado_888" data-name="Trazado 888" d="M501.883,256C501.883,391.8,391.8,501.887,256,501.887S10.113,391.8,10.113,256,120.2,10.117,256,10.117,501.883,120.2,501.883,256Zm0,0" fill="#5bb8ff"/>
      <path id="Trazado_889" data-name="Trazado 889" d="M456.859,256c0,111.07-90.039,201.109-201.1,201.109a200.366,200.366,0,0,1-133.777-50.945A202.28,202.28,0,0,1,92,372.773,200.184,200.184,0,0,1,54.645,256c0-111.066,90.039-201.1,201.1-201.1S456.859,144.934,456.859,256Zm0,0" fill="#f9f9f9"/>
      <path id="Trazado_890" data-name="Trazado 890" d="M300,330.977a8.934,8.934,0,0,1-8.934-8.934V222.692a8.927,8.927,0,0,0-8.93-8.93H211.988a8.927,8.927,0,0,0-8.93,8.93v25.3a8.93,8.93,0,0,0,8.93,8.93h26.988a8.933,8.933,0,0,1,8.93,8.934v56.2a8.93,8.93,0,0,1-8.93,8.93H212.836a8.934,8.934,0,0,0-8.934,8.934V365.2a8.934,8.934,0,0,0,8.934,8.934H317.465A8.934,8.934,0,0,0,326.4,365.2V339.911a8.934,8.934,0,0,0-8.934-8.934Zm0,0" fill="#fcd44f"/>
      <path id="Trazado_897" data-name="Trazado 897" d="M300,313.608c-4.934,0-8.934-3.407-8.934-7.61V221.369c0-4.2-10.507,90.323-45.193,12.164-4.934,0-6.893,2.734-6.893,6.937,4.885,17.286,8.93,13.818,8.93,65.531,0,4.2-4,7.606-8.93,7.606H212.836c-4.934,0-8.934,3.407-8.934,7.61v21.545c0,4.2,4,7.61,8.934,7.61H317.465c4.934,0,8.934-3.407,8.934-7.61V321.217c0-4.2-4-7.61-8.934-7.61Zm0,0" transform="translate(0 23.765)" fill="#ffa848"/>
      <path id="Trazado_898" data-name="Trazado 898" d="M284.43,143.688A34.682,34.682,0,1,1,249.746,109,34.681,34.681,0,0,1,284.43,143.688Zm0,0" fill="#fcd44f"/>
      <path id="Trazado_891" data-name="Trazado 891" d="M284.4,101.748c0,10.807-15.5,46.395-34.658,46.395s-35.23-24.123-35.23-34.929,3.212,10.591,37.159,8.813S284.4,90.939,284.4,101.748Z" transform="translate(0 30.225)" fill="#ffa848"/>
      <path id="Trazado_892" data-name="Trazado 892" d="M437.02,74.98A256,256,0,0,0,74.98,437.021,256,256,0,0,0,437.02,74.98Zm-14.3,347.734A235.771,235.771,0,0,1,89.285,89.285a235.771,235.771,0,0,1,333.43,333.43Zm0,0" fill="#141b21"/>
      <path id="Trazado_893" data-name="Trazado 893" d="M256,44.777C139.531,44.777,44.777,139.531,44.777,256A210.5,210.5,0,0,0,78.144,369.984a10.113,10.113,0,1,0,17.02-10.93A190.314,190.314,0,0,1,65.007,256c0-105.313,85.68-190.992,190.992-190.992S446.991,150.687,446.991,256,361.312,446.992,256,446.992a190.011,190.011,0,0,1-106.824-32.641,10.114,10.114,0,0,0-11.328,16.758A210.171,210.171,0,0,0,256,467.222c116.469,0,211.219-94.754,211.219-211.219S372.468,44.776,256,44.776Zm0,0" fill="#141b21"/>
      <path id="Trazado_894" data-name="Trazado 894" d="M111.805,385.906a10.111,10.111,0,1,0,9.934,8.219,10.2,10.2,0,0,0-9.934-8.219Zm0,0" fill="#141b21"/>
      <path id="Trazado_895" data-name="Trazado 895" d="M192.945,222.691v25.293a19.066,19.066,0,0,0,19.043,19.047h25.8v53.832H212.836a19.066,19.066,0,0,0-19.047,19.043v25.3a19.069,19.069,0,0,0,19.047,19.047H317.465A19.069,19.069,0,0,0,336.512,365.2v-25.3a19.066,19.066,0,0,0-19.047-19.043H301.18V222.691a19.069,19.069,0,0,0-19.047-19.047H211.988a19.068,19.068,0,0,0-19.043,19.047Zm20.227,1.184h67.777v98.168A19.069,19.069,0,0,0,300,341.09h16.289v22.93H214.019V341.09h24.957a19.067,19.067,0,0,0,19.047-19.047v-56.2A19.066,19.066,0,0,0,238.976,246.8h-25.8Zm0,0" fill="#141b21"/>
      <path id="Trazado_896" data-name="Trazado 896" d="M249.746,188.484a44.8,44.8,0,1,0-44.793-44.8A44.848,44.848,0,0,0,249.746,188.484Zm0-69.367a24.568,24.568,0,1,1-24.566,24.57,24.6,24.6,0,0,1,24.566-24.57Zm0,0" fill="#141b21"/>
    </g>
  </g>
</svg>
